# Blender v2.82 (sub 7) OBJ File: 'basicStone.blend'
# www.blender.org
o Icosphere
v 0.126627 -0.137357 0.021723
v 0.761963 -0.021829 0.693387
v -0.182579 -0.085081 0.945747
v -0.984288 -0.064826 -0.117782
v -0.377616 -0.119002 -0.929885
v 0.630140 -0.045107 -0.474322
v 0.200444 0.726334 0.829003
v -0.740534 0.847674 0.511834
v -0.693226 0.950092 -0.492432
v 0.274488 0.831031 -0.879741
v 0.939407 0.821999 0.177690
v 0.013058 1.377143 0.005109
vt 0.818181 0.000000
vt 0.727272 0.157461
vt 0.909090 0.157461
vt 0.636363 0.000000
vt 0.545454 0.157461
vt 0.090909 0.000000
vt 0.000000 0.157461
vt 0.181818 0.157461
vt 0.272727 0.000000
vt 0.363636 0.157461
vt 0.454545 0.000000
vt 0.636363 0.314921
vt 0.818181 0.314921
vt 0.090909 0.314921
vt 0.272727 0.314921
vt 0.454545 0.314921
vt 1.000000 0.314921
vt 0.727272 0.472382
vt 0.909090 0.472382
vt 0.181818 0.472382
vt 0.363636 0.472382
vt 0.545454 0.472382
vn 0.0573 -0.9983 0.0090
vn 0.6717 -0.5123 0.5350
vn -0.2185 -0.5707 0.7915
vn 0.6543 -0.6076 -0.4503
vn -0.8381 -0.5445 -0.0335
vn -0.2521 -0.5817 -0.7733
vn 0.8915 0.4411 0.1028
vn 0.1711 0.4748 0.8633
vn -0.7023 0.4648 0.5392
vn -0.6684 0.5693 -0.4787
vn 0.3337 0.4279 -0.8399
vn 0.0441 0.9980 0.0457
s 1
f 1/1/1 2/2/2 3/3/3
f 2/2/2 1/4/1 6/5/4
f 1/6/1 3/7/3 4/8/5
f 1/9/1 4/8/5 5/10/6
f 1/11/1 5/10/6 6/5/4
f 2/2/2 6/5/4 11/12/7
f 3/3/3 2/2/2 7/13/8
f 4/8/5 3/7/3 8/14/9
f 5/10/6 4/8/5 9/15/10
f 6/5/4 5/10/6 10/16/11
f 2/2/2 11/12/7 7/13/8
f 3/3/3 7/13/8 8/17/9
f 4/8/5 8/14/9 9/15/10
f 5/10/6 9/15/10 10/16/11
f 6/5/4 10/16/11 11/12/7
f 7/13/8 11/12/7 12/18/12
f 8/17/9 7/13/8 12/19/12
f 9/15/10 8/14/9 12/20/12
f 10/16/11 9/15/10 12/21/12
f 11/12/7 10/16/11 12/22/12
