# Blender v2.82 (sub 7) OBJ File: 'firstTree.blend'
# www.blender.org
o Icosphere
v -0.242733 2.122129 -0.000000
v 0.760096 3.285776 0.500455
v -0.218840 3.300536 1.102140
v -0.753715 3.205658 0.142661
v -0.411180 3.236041 -1.027314
v 0.571754 3.154777 -0.644587
v 0.126490 4.315403 0.927953
v -0.837512 3.975566 0.493265
v -0.749000 4.157575 -0.546549
v 0.321946 4.311203 -0.800708
v 0.891579 4.132611 -0.043652
v 0.067473 4.671848 0.266535
v -0.273902 2.876658 0.000000
v -0.065053 2.844669 -0.252833
v 0.217500 2.871353 -0.164732
v 0.254738 2.879382 0.193379
v -0.084639 2.876659 0.260496
v -0.053470 2.122131 -0.260496
v 0.127350 2.122131 -0.160994
v 0.252761 2.122131 0.160994
v -0.053470 2.122131 0.260496
v -0.237655 1.331252 0.056815
v -0.048391 1.331253 -0.203681
v 0.257839 1.331253 -0.104179
v 0.257839 1.331253 0.217809
v -0.048391 1.331253 0.317311
v -0.344180 0.750152 0.000000
v -0.106351 0.750153 -0.327340
v 0.278459 0.750153 -0.202305
v 0.278459 0.750153 0.202305
v -0.106351 0.750153 0.327340
v -0.591868 0.066972 0.000000
v -0.182890 0.066975 -0.562904
v 0.478841 0.066975 -0.347891
v 0.478841 0.066975 0.347891
v -0.182890 0.066975 0.562904
vt 0.727272 0.157461
vt 0.608523 0.048220
vt 0.545454 0.157461
vt 0.244888 0.048220
vt 0.363636 0.157461
vt 0.300567 0.048220
vt 0.790341 0.048220
vt 0.909090 0.157461
vt 0.846021 0.048220
vt 0.426705 0.048220
vt 0.482385 0.048220
vt 0.846021 0.048220
vt 0.790341 0.048220
vt 0.790341 0.048220
vt 0.636363 0.314921
vt 0.818181 0.314921
vt 0.181818 0.157461
vt 0.000000 0.157461
vt 0.090909 0.314921
vt 0.272727 0.314921
vt 0.454545 0.314921
vt 1.000000 0.314921
vt 0.727272 0.472382
vt 0.909090 0.472382
vt 0.181818 0.472382
vt 0.363636 0.472382
vt 0.545454 0.472382
vt 0.664203 0.048220
vt 0.608523 0.048220
vt 0.063069 0.048220
vt 0.118748 0.048220
vt 0.244888 0.048220
vt 0.482385 0.048220
vt 0.426705 0.048220
vt 0.118748 0.048220
vt 0.063069 0.048220
vt 0.118748 0.048220
vt 0.063069 0.048220
vt 0.063069 0.048220
vt 0.300567 0.048220
vt 0.244888 0.048220
vt 0.608523 0.048220
vt 0.426705 0.048220
vt 0.846021 0.048220
vt 0.790341 0.048220
vt 0.790341 0.048220
vt 0.482385 0.048220
vt 0.426705 0.048220
vt 0.846021 0.048220
vt 0.244888 0.048220
vt 0.664203 0.048220
vt 0.608523 0.048220
vt 0.104829 0.024110
vt 0.076989 0.024110
vt 0.063069 0.048220
vt 0.300567 0.048220
vt 0.244888 0.048220
vt 0.608523 0.048220
vt 0.118748 0.048220
vt 0.482385 0.048220
vt 0.426705 0.048220
vt 0.000000 0.000000
vt 0.000000 0.000000
vt 0.000000 0.000000
vt 0.000000 0.000000
vt 0.000000 0.000000
vt 0.000000 0.000000
vt 0.664203 0.048220
vt 0.300567 0.048220
vt 0.664203 0.048220
vt 0.482385 0.048220
vt 0.846021 0.048220
vt 0.300567 0.048220
vt 0.118748 0.048220
vt 0.090909 0.000000
vt 0.664203 0.048220
vt 0.000000 0.000000
vt 0.000000 0.000000
vt 0.000000 0.000000
vt 0.000000 0.000000
vn 0.6155 -0.7881 -0.0111
vn -0.4309 -0.8682 -0.2461
vn 0.0981 -0.8825 0.4601
vn 0.2042 -0.9015 -0.3817
vn 0.3083 0.0701 0.9487
vn 0.9632 -0.2341 -0.1317
vn 0.5230 -0.0318 0.8517
vn -0.8170 -0.3103 0.4861
vn -0.9393 -0.1982 -0.2801
vn 0.3589 -0.0483 -0.9321
vn 0.7836 0.2452 0.5709
vn -0.4786 0.3042 0.8236
vn -0.9933 -0.0645 -0.0958
vn -0.2644 0.3681 -0.8914
vn 0.8061 0.0953 -0.5841
vn 0.6010 0.7247 0.3369
vn -0.4706 0.7585 0.4508
vn -0.5931 0.8001 0.0896
vn -0.2154 0.9084 -0.3583
vn 0.4938 0.8527 -0.1704
vn 0.9258 -0.1132 -0.3606
vn -0.4626 -0.8204 0.3361
vn -0.7726 -0.0319 -0.6341
vn 0.3088 -0.0414 0.9502
vn 0.4820 0.0170 -0.8760
vn -0.8086 -0.0334 0.5875
vn -0.8057 0.0905 0.5854
vn -0.8085 0.0370 0.5874
vn -0.8081 -0.0474 -0.5871
vn 0.9243 0.1266 -0.3600
vn 0.4812 -0.0597 -0.8745
vn 0.2965 0.2815 0.9126
vn 0.3046 0.1691 -0.9374
vn 0.3090 -0.0144 0.9510
vn -0.7924 0.2016 -0.5757
vn 0.9994 0.0355 0.0000
vn 0.0000 -1.0000 0.0000
vn -0.7763 0.2815 -0.5640
vn 0.9596 0.2815 0.0000
vn -0.7763 0.2815 0.5640
vn 0.2965 0.2815 -0.9126
vn -0.0000 1.0000 0.0000
vn 0.6441 -0.7633 -0.0499
vn -0.5933 -0.7812 -0.1940
vn 0.3131 -0.7889 0.5288
vn 0.1193 -0.8637 -0.4898
vn 0.9946 0.0018 -0.1035
vn -0.4625 -0.8193 0.3389
vn -0.8090 -0.0067 -0.5878
vn 0.1939 0.0080 0.9810
vn 0.3009 -0.0410 -0.9528
vn 1.0000 0.0064 0.0000
vn 0.3090 -0.0173 -0.9509
s off
f 2/1/1 15/2/1 6/3/1
f 13/4/2 5/5/2 14/6/2
f 16/7/3 3/8/3 17/9/3
f 14/10/4 6/3/4 15/11/4
f 21/12/5 25/13/5 20/14/5
f 2/1/6 6/3/6 11/15/6
f 3/8/7 2/1/7 7/16/7
f 4/17/8 3/18/8 8/19/8
f 5/5/9 4/17/9 9/20/9
f 6/3/10 5/5/10 10/21/10
f 2/1/11 11/15/11 7/16/11
f 3/8/12 7/16/12 8/22/12
f 4/17/13 8/19/13 9/20/13
f 5/5/14 9/20/14 10/21/14
f 6/3/15 10/21/15 11/15/15
f 7/16/16 11/15/16 12/23/16
f 8/22/17 7/16/17 12/24/17
f 9/20/18 8/19/18 12/25/18
f 10/21/19 9/20/19 12/26/19
f 11/15/20 10/21/20 12/27/20
f 15/2/21 20/28/21 19/29/21
f 17/30/22 4/17/22 13/31/22
f 14/6/23 1/32/23 13/4/23
f 16/7/24 21/12/24 20/14/24
f 14/10/25 19/33/25 18/34/25
f 17/30/26 1/35/26 21/36/26
f 22/37/27 31/38/27 26/39/27
f 21/36/28 22/37/28 26/39/28
f 1/32/29 23/40/29 22/41/29
f 20/28/30 24/42/30 19/29/30
f 19/33/31 23/43/31 18/34/31
f 31/44/32 35/45/32 30/46/32
f 23/43/33 29/47/33 28/48/33
f 26/49/34 30/46/34 25/13/34
f 23/40/35 27/50/35 22/41/35
f 24/42/36 30/51/36 29/52/36
f 33/53/37 35/54/37 36/55/37
f 27/50/38 33/56/38 32/57/38
f 30/51/39 34/58/39 29/52/39
f 27/59/40 36/55/40 31/38/40
f 28/48/41 34/60/41 33/61/41
f 19/62/42 18/63/42 1/64/42
f 23/65/42 22/66/42 26/67/42
f 2/1/43 16/68/43 15/2/43
f 13/4/44 4/17/44 5/5/44
f 16/7/45 2/1/45 3/8/45
f 14/10/46 5/5/46 6/3/46
f 21/12/5 26/49/5 25/13/5
f 15/2/47 16/68/47 20/28/47
f 17/30/48 3/18/48 4/17/48
f 14/6/49 18/69/49 1/32/49
f 16/7/50 17/9/50 21/12/50
f 14/10/51 15/11/51 19/33/51
f 17/30/26 13/31/26 1/35/26
f 22/37/27 27/59/27 31/38/27
f 21/36/28 1/35/28 22/37/28
f 1/32/29 18/69/29 23/40/29
f 20/28/52 25/70/52 24/42/52
f 19/33/53 24/71/53 23/43/53
f 31/44/32 36/72/32 35/45/32
f 23/43/33 24/71/33 29/47/33
f 26/49/34 31/44/34 30/46/34
f 23/40/35 28/73/35 27/50/35
f 24/42/36 25/70/36 30/51/36
f 36/55/37 32/74/37 33/53/37
f 33/53/37 34/75/37 35/54/37
f 27/50/38 28/73/38 33/56/38
f 30/51/39 35/76/39 34/58/39
f 27/59/40 32/74/40 36/55/40
f 28/48/41 29/47/41 34/60/41
f 1/64/42 21/77/42 19/62/42
f 21/77/42 20/78/42 19/62/42
f 26/67/42 25/79/42 24/80/42
f 24/80/42 23/65/42 26/67/42
